v 0.090000000 0.000000000 -0.176850000
v 0.090000000 0.000000000 0.176850000
v 0.089972894 0.002208711 -0.176850000
v 0.089972894 0.002208711 0.176850000
v 0.089891591 0.004416091 -0.176850000
v 0.089891591 0.004416091 0.176850000
v 0.089756141 0.006620811 -0.176850000
v 0.089756141 0.006620811 0.176850000
v 0.089566625 0.008821543 -0.176850000
v 0.089566625 0.008821543 0.176850000
v 0.089323158 0.011016961 -0.176850000
v 0.089323158 0.011016961 0.176850000
v 0.089025886 0.013205743 -0.176850000
v 0.089025886 0.013205743 0.176850000
v 0.088674988 0.015386570 -0.176850000
v 0.088674988 0.015386570 0.176850000
v 0.088270675 0.017558129 -0.176850000
v 0.088270675 0.017558129 0.176850000
v 0.087813192 0.019719112 -0.176850000
v 0.087813192 0.019719112 0.176850000
v 0.087302813 0.021868216 -0.176850000
v 0.087302813 0.021868216 0.176850000
v 0.086739846 0.024004148 -0.176850000
v 0.086739846 0.024004148 0.176850000
v 0.086124630 0.026125621 -0.176850000
v 0.086124630 0.026125621 0.176850000
v 0.085457536 0.028231357 -0.176850000
v 0.085457536 0.028231357 0.176850000
v 0.084738966 0.030320087 -0.176850000
v 0.084738966 0.030320087 0.176850000
v 0.083969352 0.032390553 -0.176850000
v 0.083969352 0.032390553 0.176850000
v 0.083149158 0.034441509 -0.176850000
v 0.083149158 0.034441509 0.176850000
v 0.082278878 0.036471718 -0.176850000
v 0.082278878 0.036471718 0.176850000
v 0.081359036 0.038479958 -0.176850000
v 0.081359036 0.038479958 0.176850000
v 0.080390187 0.040465020 -0.176850000
v 0.080390187 0.040465020 0.176850000
v 0.079372914 0.042425706 -0.176850000
v 0.079372914 0.042425706 0.176850000
v 0.078307829 0.044360837 -0.176850000
v 0.078307829 0.044360837 0.176850000
v 0.077195575 0.046269247 -0.176850000
v 0.077195575 0.046269247 0.176850000
v 0.076036821 0.048149786 -0.176850000
v 0.076036821 0.048149786 0.176850000
v 0.074832265 0.050001321 -0.176850000
v 0.074832265 0.050001321 0.176850000
v 0.073582633 0.051822737 -0.176850000
v 0.073582633 0.051822737 0.176850000
v 0.072288678 0.053612937 -0.176850000
v 0.072288678 0.053612937 0.176850000
v 0.070951178 0.055370843 -0.176850000
v 0.070951178 0.055370843 0.176850000
v 0.069570941 0.057095396 -0.176850000
v 0.069570941 0.057095396 0.176850000
v 0.068148796 0.058785556 -0.176850000
v 0.068148796 0.058785556 0.176850000
v 0.066685601 0.060440306 -0.176850000
v 0.066685601 0.060440306 0.176850000
v 0.065182237 0.062058649 -0.176850000
v 0.065182237 0.062058649 0.176850000
v 0.063639610 0.063639610 -0.176850000
v 0.063639610 0.063639610 0.176850000
v 0.062058649 0.065182237 -0.176850000
v 0.062058649 0.065182237 0.176850000
v 0.060440306 0.066685601 -0.176850000
v 0.060440306 0.066685601 0.176850000
v 0.058785556 0.068148796 -0.176850000
v 0.058785556 0.068148796 0.176850000
v 0.057095396 0.069570941 -0.176850000
v 0.057095396 0.069570941 0.176850000
v 0.055370843 0.070951178 -0.176850000
v 0.055370843 0.070951178 0.176850000
v 0.053612937 0.072288678 -0.176850000
v 0.053612937 0.072288678 0.176850000
v 0.051822737 0.073582633 -0.176850000
v 0.051822737 0.073582633 0.176850000
v 0.050001321 0.074832265 -0.176850000
v 0.050001321 0.074832265 0.176850000
v 0.048149786 0.076036821 -0.176850000
v 0.048149786 0.076036821 0.176850000
v 0.046269247 0.077195575 -0.176850000
v 0.046269247 0.077195575 0.176850000
v 0.044360837 0.078307829 -0.176850000
v 0.044360837 0.078307829 0.176850000
v 0.042425706 0.079372914 -0.176850000
v 0.042425706 0.079372914 0.176850000
v 0.040465020 0.080390187 -0.176850000
v 0.040465020 0.080390187 0.176850000
v 0.038479958 0.081359036 -0.176850000
v 0.038479958 0.081359036 0.176850000
v 0.036471718 0.082278878 -0.176850000
v 0.036471718 0.082278878 0.176850000
v 0.034441509 0.083149158 -0.176850000
v 0.034441509 0.083149158 0.176850000
v 0.032390553 0.083969352 -0.176850000
v 0.032390553 0.083969352 0.176850000
v 0.030320087 0.084738966 -0.176850000
v 0.030320087 0.084738966 0.176850000
v 0.028231357 0.085457536 -0.176850000
v 0.028231357 0.085457536 0.176850000
v 0.026125621 0.086124630 -0.176850000
v 0.026125621 0.086124630 0.176850000
v 0.024004148 0.086739846 -0.176850000
v 0.024004148 0.086739846 0.176850000
v 0.021868216 0.087302813 -0.176850000
v 0.021868216 0.087302813 0.176850000
v 0.019719112 0.087813192 -0.176850000
v 0.019719112 0.087813192 0.176850000
v 0.017558129 0.088270675 -0.176850000
v 0.017558129 0.088270675 0.176850000
v 0.015386570 0.088674988 -0.176850000
v 0.015386570 0.088674988 0.176850000
v 0.013205743 0.089025886 -0.176850000
v 0.013205743 0.089025886 0.176850000
v 0.011016961 0.089323158 -0.176850000
v 0.011016961 0.089323158 0.176850000
v 0.008821543 0.089566625 -0.176850000
v 0.008821543 0.089566625 0.176850000
v 0.006620811 0.089756141 -0.176850000
v 0.006620811 0.089756141 0.176850000
v 0.004416091 0.089891591 -0.176850000
v 0.004416091 0.089891591 0.176850000
v 0.002208711 0.089972894 -0.176850000
v 0.002208711 0.089972894 0.176850000
v 0.000000000 0.090000000 -0.176850000
v 0.000000000 0.090000000 0.176850000
v -0.002208711 0.089972894 -0.176850000
v -0.002208711 0.089972894 0.176850000
v -0.004416091 0.089891591 -0.176850000
v -0.004416091 0.089891591 0.176850000
v -0.006620811 0.089756141 -0.176850000
v -0.006620811 0.089756141 0.176850000
v -0.008821543 0.089566625 -0.176850000
v -0.008821543 0.089566625 0.176850000
v -0.011016961 0.089323158 -0.176850000
v -0.011016961 0.089323158 0.176850000
v -0.013205743 0.089025886 -0.176850000
v -0.013205743 0.089025886 0.176850000
v -0.015386570 0.088674988 -0.176850000
v -0.015386570 0.088674988 0.176850000
v -0.017558129 0.088270675 -0.176850000
v -0.017558129 0.088270675 0.176850000
v -0.019719112 0.087813192 -0.176850000
v -0.019719112 0.087813192 0.176850000
v -0.021868216 0.087302813 -0.176850000
v -0.021868216 0.087302813 0.176850000
v -0.024004148 0.086739846 -0.176850000
v -0.024004148 0.086739846 0.176850000
v -0.026125621 0.086124630 -0.176850000
v -0.026125621 0.086124630 0.176850000
v -0.028231357 0.085457536 -0.176850000
v -0.028231357 0.085457536 0.176850000
v -0.030320087 0.084738966 -0.176850000
v -0.030320087 0.084738966 0.176850000
v -0.032390553 0.083969352 -0.176850000
v -0.032390553 0.083969352 0.176850000
v -0.034441509 0.083149158 -0.176850000
v -0.034441509 0.083149158 0.176850000
v -0.036471718 0.082278878 -0.176850000
v -0.036471718 0.082278878 0.176850000
v -0.038479958 0.081359036 -0.176850000
v -0.038479958 0.081359036 0.176850000
v -0.040465020 0.080390187 -0.176850000
v -0.040465020 0.080390187 0.176850000
v -0.042425706 0.079372914 -0.176850000
v -0.042425706 0.079372914 0.176850000
v -0.044360837 0.078307829 -0.176850000
v -0.044360837 0.078307829 0.176850000
v -0.046269247 0.077195575 -0.176850000
v -0.046269247 0.077195575 0.176850000
v -0.048149786 0.076036821 -0.176850000
v -0.048149786 0.076036821 0.176850000
v -0.050001321 0.074832265 -0.176850000
v -0.050001321 0.074832265 0.176850000
v -0.051822737 0.073582633 -0.176850000
v -0.051822737 0.073582633 0.176850000
v -0.053612937 0.072288678 -0.176850000
v -0.053612937 0.072288678 0.176850000
v -0.055370843 0.070951178 -0.176850000
v -0.055370843 0.070951178 0.176850000
v -0.057095396 0.069570941 -0.176850000
v -0.057095396 0.069570941 0.176850000
v -0.058785556 0.068148796 -0.176850000
v -0.058785556 0.068148796 0.176850000
v -0.060440306 0.066685601 -0.176850000
v -0.060440306 0.066685601 0.176850000
v -0.062058649 0.065182237 -0.176850000
v -0.062058649 0.065182237 0.176850000
v -0.063639610 0.063639610 -0.176850000
v -0.063639610 0.063639610 0.176850000
v -0.065182237 0.062058649 -0.176850000
v -0.065182237 0.062058649 0.176850000
v -0.066685601 0.060440306 -0.176850000
v -0.066685601 0.060440306 0.176850000
v -0.068148796 0.058785556 -0.176850000
v -0.068148796 0.058785556 0.176850000
v -0.069570941 0.057095396 -0.176850000
v -0.069570941 0.057095396 0.176850000
v -0.070951178 0.055370843 -0.176850000
v -0.070951178 0.055370843 0.176850000
v -0.072288678 0.053612937 -0.176850000
v -0.072288678 0.053612937 0.176850000
v -0.073582633 0.051822737 -0.176850000
v -0.073582633 0.051822737 0.176850000
v -0.074832265 0.050001321 -0.176850000
v -0.074832265 0.050001321 0.176850000
v -0.076036821 0.048149786 -0.176850000
v -0.076036821 0.048149786 0.176850000
v -0.077195575 0.046269247 -0.176850000
v -0.077195575 0.046269247 0.176850000
v -0.078307829 0.044360837 -0.176850000
v -0.078307829 0.044360837 0.176850000
v -0.079372914 0.042425706 -0.176850000
v -0.079372914 0.042425706 0.176850000
v -0.080390187 0.040465020 -0.176850000
v -0.080390187 0.040465020 0.176850000
v -0.081359036 0.038479958 -0.176850000
v -0.081359036 0.038479958 0.176850000
v -0.082278878 0.036471718 -0.176850000
v -0.082278878 0.036471718 0.176850000
v -0.083149158 0.034441509 -0.176850000
v -0.083149158 0.034441509 0.176850000
v -0.083969352 0.032390553 -0.176850000
v -0.083969352 0.032390553 0.176850000
v -0.084738966 0.030320087 -0.176850000
v -0.084738966 0.030320087 0.176850000
v -0.085457536 0.028231357 -0.176850000
v -0.085457536 0.028231357 0.176850000
v -0.086124630 0.026125621 -0.176850000
v -0.086124630 0.026125621 0.176850000
v -0.086739846 0.024004148 -0.176850000
v -0.086739846 0.024004148 0.176850000
v -0.087302813 0.021868216 -0.176850000
v -0.087302813 0.021868216 0.176850000
v -0.087813192 0.019719112 -0.176850000
v -0.087813192 0.019719112 0.176850000
v -0.088270675 0.017558129 -0.176850000
v -0.088270675 0.017558129 0.176850000
v -0.088674988 0.015386570 -0.176850000
v -0.088674988 0.015386570 0.176850000
v -0.089025886 0.013205743 -0.176850000
v -0.089025886 0.013205743 0.176850000
v -0.089323158 0.011016961 -0.176850000
v -0.089323158 0.011016961 0.176850000
v -0.089566625 0.008821543 -0.176850000
v -0.089566625 0.008821543 0.176850000
v -0.089756141 0.006620811 -0.176850000
v -0.089756141 0.006620811 0.176850000
v -0.089891591 0.004416091 -0.176850000
v -0.089891591 0.004416091 0.176850000
v -0.089972894 0.002208711 -0.176850000
v -0.089972894 0.002208711 0.176850000
v -0.090000000 0.000000000 -0.176850000
v -0.090000000 0.000000000 0.176850000
v -0.089972894 -0.002208711 -0.176850000
v -0.089972894 -0.002208711 0.176850000
v -0.089891591 -0.004416091 -0.176850000
v -0.089891591 -0.004416091 0.176850000
v -0.089756141 -0.006620811 -0.176850000
v -0.089756141 -0.006620811 0.176850000
v -0.089566625 -0.008821543 -0.176850000
v -0.089566625 -0.008821543 0.176850000
v -0.089323158 -0.011016961 -0.176850000
v -0.089323158 -0.011016961 0.176850000
v -0.089025886 -0.013205743 -0.176850000
v -0.089025886 -0.013205743 0.176850000
v -0.088674988 -0.015386570 -0.176850000
v -0.088674988 -0.015386570 0.176850000
v -0.088270675 -0.017558129 -0.176850000
v -0.088270675 -0.017558129 0.176850000
v -0.087813192 -0.019719112 -0.176850000
v -0.087813192 -0.019719112 0.176850000
v -0.087302813 -0.021868216 -0.176850000
v -0.087302813 -0.021868216 0.176850000
v -0.086739846 -0.024004148 -0.176850000
v -0.086739846 -0.024004148 0.176850000
v -0.086124630 -0.026125621 -0.176850000
v -0.086124630 -0.026125621 0.176850000
v -0.085457536 -0.028231357 -0.176850000
v -0.085457536 -0.028231357 0.176850000
v -0.084738966 -0.030320087 -0.176850000
v -0.084738966 -0.030320087 0.176850000
v -0.083969352 -0.032390553 -0.176850000
v -0.083969352 -0.032390553 0.176850000
v -0.083149158 -0.034441509 -0.176850000
v -0.083149158 -0.034441509 0.176850000
v -0.082278878 -0.036471718 -0.176850000
v -0.082278878 -0.036471718 0.176850000
v -0.081359036 -0.038479958 -0.176850000
v -0.081359036 -0.038479958 0.176850000
v -0.080390187 -0.040465020 -0.176850000
v -0.080390187 -0.040465020 0.176850000
v -0.079372914 -0.042425706 -0.176850000
v -0.079372914 -0.042425706 0.176850000
v -0.078307829 -0.044360837 -0.176850000
v -0.078307829 -0.044360837 0.176850000
v -0.077195575 -0.046269247 -0.176850000
v -0.077195575 -0.046269247 0.176850000
v -0.076036821 -0.048149786 -0.176850000
v -0.076036821 -0.048149786 0.176850000
v -0.074832265 -0.050001321 -0.176850000
v -0.074832265 -0.050001321 0.176850000
v -0.073582633 -0.051822737 -0.176850000
v -0.073582633 -0.051822737 0.176850000
v -0.072288678 -0.053612937 -0.176850000
v -0.072288678 -0.053612937 0.176850000
v -0.070951178 -0.055370843 -0.176850000
v -0.070951178 -0.055370843 0.176850000
v -0.069570941 -0.057095396 -0.176850000
v -0.069570941 -0.057095396 0.176850000
v -0.068148796 -0.058785556 -0.176850000
v -0.068148796 -0.058785556 0.176850000
v -0.066685601 -0.060440306 -0.176850000
v -0.066685601 -0.060440306 0.176850000
v -0.065182237 -0.062058649 -0.176850000
v -0.065182237 -0.062058649 0.176850000
v -0.063639610 -0.063639610 -0.176850000
v -0.063639610 -0.063639610 0.176850000
v -0.062058649 -0.065182237 -0.176850000
v -0.062058649 -0.065182237 0.176850000
v -0.060440306 -0.066685601 -0.176850000
v -0.060440306 -0.066685601 0.176850000
v -0.058785556 -0.068148796 -0.176850000
v -0.058785556 -0.068148796 0.176850000
v -0.057095396 -0.069570941 -0.176850000
v -0.057095396 -0.069570941 0.176850000
v -0.055370843 -0.070951178 -0.176850000
v -0.055370843 -0.070951178 0.176850000
v -0.053612937 -0.072288678 -0.176850000
v -0.053612937 -0.072288678 0.176850000
v -0.051822737 -0.073582633 -0.176850000
v -0.051822737 -0.073582633 0.176850000
v -0.050001321 -0.074832265 -0.176850000
v -0.050001321 -0.074832265 0.176850000
v -0.048149786 -0.076036821 -0.176850000
v -0.048149786 -0.076036821 0.176850000
v -0.046269247 -0.077195575 -0.176850000
v -0.046269247 -0.077195575 0.176850000
v -0.044360837 -0.078307829 -0.176850000
v -0.044360837 -0.078307829 0.176850000
v -0.042425706 -0.079372914 -0.176850000
v -0.042425706 -0.079372914 0.176850000
v -0.040465020 -0.080390187 -0.176850000
v -0.040465020 -0.080390187 0.176850000
v -0.038479958 -0.081359036 -0.176850000
v -0.038479958 -0.081359036 0.176850000
v -0.036471718 -0.082278878 -0.176850000
v -0.036471718 -0.082278878 0.176850000
v -0.034441509 -0.083149158 -0.176850000
v -0.034441509 -0.083149158 0.176850000
v -0.032390553 -0.083969352 -0.176850000
v -0.032390553 -0.083969352 0.176850000
v -0.030320087 -0.084738966 -0.176850000
v -0.030320087 -0.084738966 0.176850000
v -0.028231357 -0.085457536 -0.176850000
v -0.028231357 -0.085457536 0.176850000
v -0.026125621 -0.086124630 -0.176850000
v -0.026125621 -0.086124630 0.176850000
v -0.024004148 -0.086739846 -0.176850000
v -0.024004148 -0.086739846 0.176850000
v -0.021868216 -0.087302813 -0.176850000
v -0.021868216 -0.087302813 0.176850000
v -0.019719112 -0.087813192 -0.176850000
v -0.019719112 -0.087813192 0.176850000
v -0.017558129 -0.088270675 -0.176850000
v -0.017558129 -0.088270675 0.176850000
v -0.015386570 -0.088674988 -0.176850000
v -0.015386570 -0.088674988 0.176850000
v -0.013205743 -0.089025886 -0.176850000
v -0.013205743 -0.089025886 0.176850000
v -0.011016961 -0.089323158 -0.176850000
v -0.011016961 -0.089323158 0.176850000
v -0.008821543 -0.089566625 -0.176850000
v -0.008821543 -0.089566625 0.176850000
v -0.006620811 -0.089756141 -0.176850000
v -0.006620811 -0.089756141 0.176850000
v -0.004416091 -0.089891591 -0.176850000
v -0.004416091 -0.089891591 0.176850000
v -0.002208711 -0.089972894 -0.176850000
v -0.002208711 -0.089972894 0.176850000
v -0.000000000 -0.090000000 -0.176850000
v -0.000000000 -0.090000000 0.176850000
v 0.002208711 -0.089972894 -0.176850000
v 0.002208711 -0.089972894 0.176850000
v 0.004416091 -0.089891591 -0.176850000
v 0.004416091 -0.089891591 0.176850000
v 0.006620811 -0.089756141 -0.176850000
v 0.006620811 -0.089756141 0.176850000
v 0.008821543 -0.089566625 -0.176850000
v 0.008821543 -0.089566625 0.176850000
v 0.011016961 -0.089323158 -0.176850000
v 0.011016961 -0.089323158 0.176850000
v 0.013205743 -0.089025886 -0.176850000
v 0.013205743 -0.089025886 0.176850000
v 0.015386570 -0.088674988 -0.176850000
v 0.015386570 -0.088674988 0.176850000
v 0.017558129 -0.088270675 -0.176850000
v 0.017558129 -0.088270675 0.176850000
v 0.019719112 -0.087813192 -0.176850000
v 0.019719112 -0.087813192 0.176850000
v 0.021868216 -0.087302813 -0.176850000
v 0.021868216 -0.087302813 0.176850000
v 0.024004148 -0.086739846 -0.176850000
v 0.024004148 -0.086739846 0.176850000
v 0.026125621 -0.086124630 -0.176850000
v 0.026125621 -0.086124630 0.176850000
v 0.028231357 -0.085457536 -0.176850000
v 0.028231357 -0.085457536 0.176850000
v 0.030320087 -0.084738966 -0.176850000
v 0.030320087 -0.084738966 0.176850000
v 0.032390553 -0.083969352 -0.176850000
v 0.032390553 -0.083969352 0.176850000
v 0.034441509 -0.083149158 -0.176850000
v 0.034441509 -0.083149158 0.176850000
v 0.036471718 -0.082278878 -0.176850000
v 0.036471718 -0.082278878 0.176850000
v 0.038479958 -0.081359036 -0.176850000
v 0.038479958 -0.081359036 0.176850000
v 0.040465020 -0.080390187 -0.176850000
v 0.040465020 -0.080390187 0.176850000
v 0.042425706 -0.079372914 -0.176850000
v 0.042425706 -0.079372914 0.176850000
v 0.044360837 -0.078307829 -0.176850000
v 0.044360837 -0.078307829 0.176850000
v 0.046269247 -0.077195575 -0.176850000
v 0.046269247 -0.077195575 0.176850000
v 0.048149786 -0.076036821 -0.176850000
v 0.048149786 -0.076036821 0.176850000
v 0.050001321 -0.074832265 -0.176850000
v 0.050001321 -0.074832265 0.176850000
v 0.051822737 -0.073582633 -0.176850000
v 0.051822737 -0.073582633 0.176850000
v 0.053612937 -0.072288678 -0.176850000
v 0.053612937 -0.072288678 0.176850000
v 0.055370843 -0.070951178 -0.176850000
v 0.055370843 -0.070951178 0.176850000
v 0.057095396 -0.069570941 -0.176850000
v 0.057095396 -0.069570941 0.176850000
v 0.058785556 -0.068148796 -0.176850000
v 0.058785556 -0.068148796 0.176850000
v 0.060440306 -0.066685601 -0.176850000
v 0.060440306 -0.066685601 0.176850000
v 0.062058649 -0.065182237 -0.176850000
v 0.062058649 -0.065182237 0.176850000
v 0.063639610 -0.063639610 -0.176850000
v 0.063639610 -0.063639610 0.176850000
v 0.065182237 -0.062058649 -0.176850000
v 0.065182237 -0.062058649 0.176850000
v 0.066685601 -0.060440306 -0.176850000
v 0.066685601 -0.060440306 0.176850000
v 0.068148796 -0.058785556 -0.176850000
v 0.068148796 -0.058785556 0.176850000
v 0.069570941 -0.057095396 -0.176850000
v 0.069570941 -0.057095396 0.176850000
v 0.070951178 -0.055370843 -0.176850000
v 0.070951178 -0.055370843 0.176850000
v 0.072288678 -0.053612937 -0.176850000
v 0.072288678 -0.053612937 0.176850000
v 0.073582633 -0.051822737 -0.176850000
v 0.073582633 -0.051822737 0.176850000
v 0.074832265 -0.050001321 -0.176850000
v 0.074832265 -0.050001321 0.176850000
v 0.076036821 -0.048149786 -0.176850000
v 0.076036821 -0.048149786 0.176850000
v 0.077195575 -0.046269247 -0.176850000
v 0.077195575 -0.046269247 0.176850000
v 0.078307829 -0.044360837 -0.176850000
v 0.078307829 -0.044360837 0.176850000
v 0.079372914 -0.042425706 -0.176850000
v 0.079372914 -0.042425706 0.176850000
v 0.080390187 -0.040465020 -0.176850000
v 0.080390187 -0.040465020 0.176850000
v 0.081359036 -0.038479958 -0.176850000
v 0.081359036 -0.038479958 0.176850000
v 0.082278878 -0.036471718 -0.176850000
v 0.082278878 -0.036471718 0.176850000
v 0.083149158 -0.034441509 -0.176850000
v 0.083149158 -0.034441509 0.176850000
v 0.083969352 -0.032390553 -0.176850000
v 0.083969352 -0.032390553 0.176850000
v 0.084738966 -0.030320087 -0.176850000
v 0.084738966 -0.030320087 0.176850000
v 0.085457536 -0.028231357 -0.176850000
v 0.085457536 -0.028231357 0.176850000
v 0.086124630 -0.026125621 -0.176850000
v 0.086124630 -0.026125621 0.176850000
v 0.086739846 -0.024004148 -0.176850000
v 0.086739846 -0.024004148 0.176850000
v 0.087302813 -0.021868216 -0.176850000
v 0.087302813 -0.021868216 0.176850000
v 0.087813192 -0.019719112 -0.176850000
v 0.087813192 -0.019719112 0.176850000
v 0.088270675 -0.017558129 -0.176850000
v 0.088270675 -0.017558129 0.176850000
v 0.088674988 -0.015386570 -0.176850000
v 0.088674988 -0.015386570 0.176850000
v 0.089025886 -0.013205743 -0.176850000
v 0.089025886 -0.013205743 0.176850000
v 0.089323158 -0.011016961 -0.176850000
v 0.089323158 -0.011016961 0.176850000
v 0.089566625 -0.008821543 -0.176850000
v 0.089566625 -0.008821543 0.176850000
v 0.089756141 -0.006620811 -0.176850000
v 0.089756141 -0.006620811 0.176850000
v 0.089891591 -0.004416091 -0.176850000
v 0.089891591 -0.004416091 0.176850000
v 0.089972894 -0.002208711 -0.176850000
v 0.089972894 -0.002208711 0.176850000
v 0.000000000 0.000000000 -0.176850000
v 0.000000000 0.000000000 0.176850000
f 1 3 4
f 1 4 2
f 513 3 1
f 514 2 4
f 3 5 6
f 3 6 4
f 513 5 3
f 514 4 6
f 5 7 8
f 5 8 6
f 513 7 5
f 514 6 8
f 7 9 10
f 7 10 8
f 513 9 7
f 514 8 10
f 9 11 12
f 9 12 10
f 513 11 9
f 514 10 12
f 11 13 14
f 11 14 12
f 513 13 11
f 514 12 14
f 13 15 16
f 13 16 14
f 513 15 13
f 514 14 16
f 15 17 18
f 15 18 16
f 513 17 15
f 514 16 18
f 17 19 20
f 17 20 18
f 513 19 17
f 514 18 20
f 19 21 22
f 19 22 20
f 513 21 19
f 514 20 22
f 21 23 24
f 21 24 22
f 513 23 21
f 514 22 24
f 23 25 26
f 23 26 24
f 513 25 23
f 514 24 26
f 25 27 28
f 25 28 26
f 513 27 25
f 514 26 28
f 27 29 30
f 27 30 28
f 513 29 27
f 514 28 30
f 29 31 32
f 29 32 30
f 513 31 29
f 514 30 32
f 31 33 34
f 31 34 32
f 513 33 31
f 514 32 34
f 33 35 36
f 33 36 34
f 513 35 33
f 514 34 36
f 35 37 38
f 35 38 36
f 513 37 35
f 514 36 38
f 37 39 40
f 37 40 38
f 513 39 37
f 514 38 40
f 39 41 42
f 39 42 40
f 513 41 39
f 514 40 42
f 41 43 44
f 41 44 42
f 513 43 41
f 514 42 44
f 43 45 46
f 43 46 44
f 513 45 43
f 514 44 46
f 45 47 48
f 45 48 46
f 513 47 45
f 514 46 48
f 47 49 50
f 47 50 48
f 513 49 47
f 514 48 50
f 49 51 52
f 49 52 50
f 513 51 49
f 514 50 52
f 51 53 54
f 51 54 52
f 513 53 51
f 514 52 54
f 53 55 56
f 53 56 54
f 513 55 53
f 514 54 56
f 55 57 58
f 55 58 56
f 513 57 55
f 514 56 58
f 57 59 60
f 57 60 58
f 513 59 57
f 514 58 60
f 59 61 62
f 59 62 60
f 513 61 59
f 514 60 62
f 61 63 64
f 61 64 62
f 513 63 61
f 514 62 64
f 63 65 66
f 63 66 64
f 513 65 63
f 514 64 66
f 65 67 68
f 65 68 66
f 513 67 65
f 514 66 68
f 67 69 70
f 67 70 68
f 513 69 67
f 514 68 70
f 69 71 72
f 69 72 70
f 513 71 69
f 514 70 72
f 71 73 74
f 71 74 72
f 513 73 71
f 514 72 74
f 73 75 76
f 73 76 74
f 513 75 73
f 514 74 76
f 75 77 78
f 75 78 76
f 513 77 75
f 514 76 78
f 77 79 80
f 77 80 78
f 513 79 77
f 514 78 80
f 79 81 82
f 79 82 80
f 513 81 79
f 514 80 82
f 81 83 84
f 81 84 82
f 513 83 81
f 514 82 84
f 83 85 86
f 83 86 84
f 513 85 83
f 514 84 86
f 85 87 88
f 85 88 86
f 513 87 85
f 514 86 88
f 87 89 90
f 87 90 88
f 513 89 87
f 514 88 90
f 89 91 92
f 89 92 90
f 513 91 89
f 514 90 92
f 91 93 94
f 91 94 92
f 513 93 91
f 514 92 94
f 93 95 96
f 93 96 94
f 513 95 93
f 514 94 96
f 95 97 98
f 95 98 96
f 513 97 95
f 514 96 98
f 97 99 100
f 97 100 98
f 513 99 97
f 514 98 100
f 99 101 102
f 99 102 100
f 513 101 99
f 514 100 102
f 101 103 104
f 101 104 102
f 513 103 101
f 514 102 104
f 103 105 106
f 103 106 104
f 513 105 103
f 514 104 106
f 105 107 108
f 105 108 106
f 513 107 105
f 514 106 108
f 107 109 110
f 107 110 108
f 513 109 107
f 514 108 110
f 109 111 112
f 109 112 110
f 513 111 109
f 514 110 112
f 111 113 114
f 111 114 112
f 513 113 111
f 514 112 114
f 113 115 116
f 113 116 114
f 513 115 113
f 514 114 116
f 115 117 118
f 115 118 116
f 513 117 115
f 514 116 118
f 117 119 120
f 117 120 118
f 513 119 117
f 514 118 120
f 119 121 122
f 119 122 120
f 513 121 119
f 514 120 122
f 121 123 124
f 121 124 122
f 513 123 121
f 514 122 124
f 123 125 126
f 123 126 124
f 513 125 123
f 514 124 126
f 125 127 128
f 125 128 126
f 513 127 125
f 514 126 128
f 127 129 130
f 127 130 128
f 513 129 127
f 514 128 130
f 129 131 132
f 129 132 130
f 513 131 129
f 514 130 132
f 131 133 134
f 131 134 132
f 513 133 131
f 514 132 134
f 133 135 136
f 133 136 134
f 513 135 133
f 514 134 136
f 135 137 138
f 135 138 136
f 513 137 135
f 514 136 138
f 137 139 140
f 137 140 138
f 513 139 137
f 514 138 140
f 139 141 142
f 139 142 140
f 513 141 139
f 514 140 142
f 141 143 144
f 141 144 142
f 513 143 141
f 514 142 144
f 143 145 146
f 143 146 144
f 513 145 143
f 514 144 146
f 145 147 148
f 145 148 146
f 513 147 145
f 514 146 148
f 147 149 150
f 147 150 148
f 513 149 147
f 514 148 150
f 149 151 152
f 149 152 150
f 513 151 149
f 514 150 152
f 151 153 154
f 151 154 152
f 513 153 151
f 514 152 154
f 153 155 156
f 153 156 154
f 513 155 153
f 514 154 156
f 155 157 158
f 155 158 156
f 513 157 155
f 514 156 158
f 157 159 160
f 157 160 158
f 513 159 157
f 514 158 160
f 159 161 162
f 159 162 160
f 513 161 159
f 514 160 162
f 161 163 164
f 161 164 162
f 513 163 161
f 514 162 164
f 163 165 166
f 163 166 164
f 513 165 163
f 514 164 166
f 165 167 168
f 165 168 166
f 513 167 165
f 514 166 168
f 167 169 170
f 167 170 168
f 513 169 167
f 514 168 170
f 169 171 172
f 169 172 170
f 513 171 169
f 514 170 172
f 171 173 174
f 171 174 172
f 513 173 171
f 514 172 174
f 173 175 176
f 173 176 174
f 513 175 173
f 514 174 176
f 175 177 178
f 175 178 176
f 513 177 175
f 514 176 178
f 177 179 180
f 177 180 178
f 513 179 177
f 514 178 180
f 179 181 182
f 179 182 180
f 513 181 179
f 514 180 182
f 181 183 184
f 181 184 182
f 513 183 181
f 514 182 184
f 183 185 186
f 183 186 184
f 513 185 183
f 514 184 186
f 185 187 188
f 185 188 186
f 513 187 185
f 514 186 188
f 187 189 190
f 187 190 188
f 513 189 187
f 514 188 190
f 189 191 192
f 189 192 190
f 513 191 189
f 514 190 192
f 191 193 194
f 191 194 192
f 513 193 191
f 514 192 194
f 193 195 196
f 193 196 194
f 513 195 193
f 514 194 196
f 195 197 198
f 195 198 196
f 513 197 195
f 514 196 198
f 197 199 200
f 197 200 198
f 513 199 197
f 514 198 200
f 199 201 202
f 199 202 200
f 513 201 199
f 514 200 202
f 201 203 204
f 201 204 202
f 513 203 201
f 514 202 204
f 203 205 206
f 203 206 204
f 513 205 203
f 514 204 206
f 205 207 208
f 205 208 206
f 513 207 205
f 514 206 208
f 207 209 210
f 207 210 208
f 513 209 207
f 514 208 210
f 209 211 212
f 209 212 210
f 513 211 209
f 514 210 212
f 211 213 214
f 211 214 212
f 513 213 211
f 514 212 214
f 213 215 216
f 213 216 214
f 513 215 213
f 514 214 216
f 215 217 218
f 215 218 216
f 513 217 215
f 514 216 218
f 217 219 220
f 217 220 218
f 513 219 217
f 514 218 220
f 219 221 222
f 219 222 220
f 513 221 219
f 514 220 222
f 221 223 224
f 221 224 222
f 513 223 221
f 514 222 224
f 223 225 226
f 223 226 224
f 513 225 223
f 514 224 226
f 225 227 228
f 225 228 226
f 513 227 225
f 514 226 228
f 227 229 230
f 227 230 228
f 513 229 227
f 514 228 230
f 229 231 232
f 229 232 230
f 513 231 229
f 514 230 232
f 231 233 234
f 231 234 232
f 513 233 231
f 514 232 234
f 233 235 236
f 233 236 234
f 513 235 233
f 514 234 236
f 235 237 238
f 235 238 236
f 513 237 235
f 514 236 238
f 237 239 240
f 237 240 238
f 513 239 237
f 514 238 240
f 239 241 242
f 239 242 240
f 513 241 239
f 514 240 242
f 241 243 244
f 241 244 242
f 513 243 241
f 514 242 244
f 243 245 246
f 243 246 244
f 513 245 243
f 514 244 246
f 245 247 248
f 245 248 246
f 513 247 245
f 514 246 248
f 247 249 250
f 247 250 248
f 513 249 247
f 514 248 250
f 249 251 252
f 249 252 250
f 513 251 249
f 514 250 252
f 251 253 254
f 251 254 252
f 513 253 251
f 514 252 254
f 253 255 256
f 253 256 254
f 513 255 253
f 514 254 256
f 255 257 258
f 255 258 256
f 513 257 255
f 514 256 258
f 257 259 260
f 257 260 258
f 513 259 257
f 514 258 260
f 259 261 262
f 259 262 260
f 513 261 259
f 514 260 262
f 261 263 264
f 261 264 262
f 513 263 261
f 514 262 264
f 263 265 266
f 263 266 264
f 513 265 263
f 514 264 266
f 265 267 268
f 265 268 266
f 513 267 265
f 514 266 268
f 267 269 270
f 267 270 268
f 513 269 267
f 514 268 270
f 269 271 272
f 269 272 270
f 513 271 269
f 514 270 272
f 271 273 274
f 271 274 272
f 513 273 271
f 514 272 274
f 273 275 276
f 273 276 274
f 513 275 273
f 514 274 276
f 275 277 278
f 275 278 276
f 513 277 275
f 514 276 278
f 277 279 280
f 277 280 278
f 513 279 277
f 514 278 280
f 279 281 282
f 279 282 280
f 513 281 279
f 514 280 282
f 281 283 284
f 281 284 282
f 513 283 281
f 514 282 284
f 283 285 286
f 283 286 284
f 513 285 283
f 514 284 286
f 285 287 288
f 285 288 286
f 513 287 285
f 514 286 288
f 287 289 290
f 287 290 288
f 513 289 287
f 514 288 290
f 289 291 292
f 289 292 290
f 513 291 289
f 514 290 292
f 291 293 294
f 291 294 292
f 513 293 291
f 514 292 294
f 293 295 296
f 293 296 294
f 513 295 293
f 514 294 296
f 295 297 298
f 295 298 296
f 513 297 295
f 514 296 298
f 297 299 300
f 297 300 298
f 513 299 297
f 514 298 300
f 299 301 302
f 299 302 300
f 513 301 299
f 514 300 302
f 301 303 304
f 301 304 302
f 513 303 301
f 514 302 304
f 303 305 306
f 303 306 304
f 513 305 303
f 514 304 306
f 305 307 308
f 305 308 306
f 513 307 305
f 514 306 308
f 307 309 310
f 307 310 308
f 513 309 307
f 514 308 310
f 309 311 312
f 309 312 310
f 513 311 309
f 514 310 312
f 311 313 314
f 311 314 312
f 513 313 311
f 514 312 314
f 313 315 316
f 313 316 314
f 513 315 313
f 514 314 316
f 315 317 318
f 315 318 316
f 513 317 315
f 514 316 318
f 317 319 320
f 317 320 318
f 513 319 317
f 514 318 320
f 319 321 322
f 319 322 320
f 513 321 319
f 514 320 322
f 321 323 324
f 321 324 322
f 513 323 321
f 514 322 324
f 323 325 326
f 323 326 324
f 513 325 323
f 514 324 326
f 325 327 328
f 325 328 326
f 513 327 325
f 514 326 328
f 327 329 330
f 327 330 328
f 513 329 327
f 514 328 330
f 329 331 332
f 329 332 330
f 513 331 329
f 514 330 332
f 331 333 334
f 331 334 332
f 513 333 331
f 514 332 334
f 333 335 336
f 333 336 334
f 513 335 333
f 514 334 336
f 335 337 338
f 335 338 336
f 513 337 335
f 514 336 338
f 337 339 340
f 337 340 338
f 513 339 337
f 514 338 340
f 339 341 342
f 339 342 340
f 513 341 339
f 514 340 342
f 341 343 344
f 341 344 342
f 513 343 341
f 514 342 344
f 343 345 346
f 343 346 344
f 513 345 343
f 514 344 346
f 345 347 348
f 345 348 346
f 513 347 345
f 514 346 348
f 347 349 350
f 347 350 348
f 513 349 347
f 514 348 350
f 349 351 352
f 349 352 350
f 513 351 349
f 514 350 352
f 351 353 354
f 351 354 352
f 513 353 351
f 514 352 354
f 353 355 356
f 353 356 354
f 513 355 353
f 514 354 356
f 355 357 358
f 355 358 356
f 513 357 355
f 514 356 358
f 357 359 360
f 357 360 358
f 513 359 357
f 514 358 360
f 359 361 362
f 359 362 360
f 513 361 359
f 514 360 362
f 361 363 364
f 361 364 362
f 513 363 361
f 514 362 364
f 363 365 366
f 363 366 364
f 513 365 363
f 514 364 366
f 365 367 368
f 365 368 366
f 513 367 365
f 514 366 368
f 367 369 370
f 367 370 368
f 513 369 367
f 514 368 370
f 369 371 372
f 369 372 370
f 513 371 369
f 514 370 372
f 371 373 374
f 371 374 372
f 513 373 371
f 514 372 374
f 373 375 376
f 373 376 374
f 513 375 373
f 514 374 376
f 375 377 378
f 375 378 376
f 513 377 375
f 514 376 378
f 377 379 380
f 377 380 378
f 513 379 377
f 514 378 380
f 379 381 382
f 379 382 380
f 513 381 379
f 514 380 382
f 381 383 384
f 381 384 382
f 513 383 381
f 514 382 384
f 383 385 386
f 383 386 384
f 513 385 383
f 514 384 386
f 385 387 388
f 385 388 386
f 513 387 385
f 514 386 388
f 387 389 390
f 387 390 388
f 513 389 387
f 514 388 390
f 389 391 392
f 389 392 390
f 513 391 389
f 514 390 392
f 391 393 394
f 391 394 392
f 513 393 391
f 514 392 394
f 393 395 396
f 393 396 394
f 513 395 393
f 514 394 396
f 395 397 398
f 395 398 396
f 513 397 395
f 514 396 398
f 397 399 400
f 397 400 398
f 513 399 397
f 514 398 400
f 399 401 402
f 399 402 400
f 513 401 399
f 514 400 402
f 401 403 404
f 401 404 402
f 513 403 401
f 514 402 404
f 403 405 406
f 403 406 404
f 513 405 403
f 514 404 406
f 405 407 408
f 405 408 406
f 513 407 405
f 514 406 408
f 407 409 410
f 407 410 408
f 513 409 407
f 514 408 410
f 409 411 412
f 409 412 410
f 513 411 409
f 514 410 412
f 411 413 414
f 411 414 412
f 513 413 411
f 514 412 414
f 413 415 416
f 413 416 414
f 513 415 413
f 514 414 416
f 415 417 418
f 415 418 416
f 513 417 415
f 514 416 418
f 417 419 420
f 417 420 418
f 513 419 417
f 514 418 420
f 419 421 422
f 419 422 420
f 513 421 419
f 514 420 422
f 421 423 424
f 421 424 422
f 513 423 421
f 514 422 424
f 423 425 426
f 423 426 424
f 513 425 423
f 514 424 426
f 425 427 428
f 425 428 426
f 513 427 425
f 514 426 428
f 427 429 430
f 427 430 428
f 513 429 427
f 514 428 430
f 429 431 432
f 429 432 430
f 513 431 429
f 514 430 432
f 431 433 434
f 431 434 432
f 513 433 431
f 514 432 434
f 433 435 436
f 433 436 434
f 513 435 433
f 514 434 436
f 435 437 438
f 435 438 436
f 513 437 435
f 514 436 438
f 437 439 440
f 437 440 438
f 513 439 437
f 514 438 440
f 439 441 442
f 439 442 440
f 513 441 439
f 514 440 442
f 441 443 444
f 441 444 442
f 513 443 441
f 514 442 444
f 443 445 446
f 443 446 444
f 513 445 443
f 514 444 446
f 445 447 448
f 445 448 446
f 513 447 445
f 514 446 448
f 447 449 450
f 447 450 448
f 513 449 447
f 514 448 450
f 449 451 452
f 449 452 450
f 513 451 449
f 514 450 452
f 451 453 454
f 451 454 452
f 513 453 451
f 514 452 454
f 453 455 456
f 453 456 454
f 513 455 453
f 514 454 456
f 455 457 458
f 455 458 456
f 513 457 455
f 514 456 458
f 457 459 460
f 457 460 458
f 513 459 457
f 514 458 460
f 459 461 462
f 459 462 460
f 513 461 459
f 514 460 462
f 461 463 464
f 461 464 462
f 513 463 461
f 514 462 464
f 463 465 466
f 463 466 464
f 513 465 463
f 514 464 466
f 465 467 468
f 465 468 466
f 513 467 465
f 514 466 468
f 467 469 470
f 467 470 468
f 513 469 467
f 514 468 470
f 469 471 472
f 469 472 470
f 513 471 469
f 514 470 472
f 471 473 474
f 471 474 472
f 513 473 471
f 514 472 474
f 473 475 476
f 473 476 474
f 513 475 473
f 514 474 476
f 475 477 478
f 475 478 476
f 513 477 475
f 514 476 478
f 477 479 480
f 477 480 478
f 513 479 477
f 514 478 480
f 479 481 482
f 479 482 480
f 513 481 479
f 514 480 482
f 481 483 484
f 481 484 482
f 513 483 481
f 514 482 484
f 483 485 486
f 483 486 484
f 513 485 483
f 514 484 486
f 485 487 488
f 485 488 486
f 513 487 485
f 514 486 488
f 487 489 490
f 487 490 488
f 513 489 487
f 514 488 490
f 489 491 492
f 489 492 490
f 513 491 489
f 514 490 492
f 491 493 494
f 491 494 492
f 513 493 491
f 514 492 494
f 493 495 496
f 493 496 494
f 513 495 493
f 514 494 496
f 495 497 498
f 495 498 496
f 513 497 495
f 514 496 498
f 497 499 500
f 497 500 498
f 513 499 497
f 514 498 500
f 499 501 502
f 499 502 500
f 513 501 499
f 514 500 502
f 501 503 504
f 501 504 502
f 513 503 501
f 514 502 504
f 503 505 506
f 503 506 504
f 513 505 503
f 514 504 506
f 505 507 508
f 505 508 506
f 513 507 505
f 514 506 508
f 507 509 510
f 507 510 508
f 513 509 507
f 514 508 510
f 509 511 512
f 509 512 510
f 513 511 509
f 514 510 512
f 511 1 2
f 511 2 512
f 513 1 511
f 514 512 2
