v 0.015000000 0.000000000 -0.162500000
v 0.015000000 0.000000000 0.162500000
v 0.014981932 0.000736015 -0.162500000
v 0.014981932 0.000736015 0.162500000
v 0.014927771 0.001470257 -0.162500000
v 0.014927771 0.001470257 0.162500000
v 0.014837648 0.002200957 -0.162500000
v 0.014837648 0.002200957 0.162500000
v 0.014711779 0.002926355 -0.162500000
v 0.014711779 0.002926355 0.162500000
v 0.014550469 0.003644703 -0.162500000
v 0.014550469 0.003644703 0.162500000
v 0.014354105 0.004354270 -0.162500000
v 0.014354105 0.004354270 0.162500000
v 0.014123161 0.005053348 -0.162500000
v 0.014123161 0.005053348 0.162500000
v 0.013858193 0.005740251 -0.162500000
v 0.013858193 0.005740251 0.162500000
v 0.013559839 0.006413326 -0.162500000
v 0.013559839 0.006413326 0.162500000
v 0.013228819 0.007070951 -0.162500000
v 0.013228819 0.007070951 0.162500000
v 0.012865929 0.007711541 -0.162500000
v 0.012865929 0.007711541 0.162500000
v 0.012472044 0.008333553 -0.162500000
v 0.012472044 0.008333553 0.162500000
v 0.012048113 0.008935490 -0.162500000
v 0.012048113 0.008935490 0.162500000
v 0.011595157 0.009515899 -0.162500000
v 0.011595157 0.009515899 0.162500000
v 0.011114267 0.010073384 -0.162500000
v 0.011114267 0.010073384 0.162500000
v 0.010606602 0.010606602 -0.162500000
v 0.010606602 0.010606602 0.162500000
v 0.010073384 0.011114267 -0.162500000
v 0.010073384 0.011114267 0.162500000
v 0.009515899 0.011595157 -0.162500000
v 0.009515899 0.011595157 0.162500000
v 0.008935490 0.012048113 -0.162500000
v 0.008935490 0.012048113 0.162500000
v 0.008333553 0.012472044 -0.162500000
v 0.008333553 0.012472044 0.162500000
v 0.007711541 0.012865929 -0.162500000
v 0.007711541 0.012865929 0.162500000
v 0.007070951 0.013228819 -0.162500000
v 0.007070951 0.013228819 0.162500000
v 0.006413326 0.013559839 -0.162500000
v 0.006413326 0.013559839 0.162500000
v 0.005740251 0.013858193 -0.162500000
v 0.005740251 0.013858193 0.162500000
v 0.005053348 0.014123161 -0.162500000
v 0.005053348 0.014123161 0.162500000
v 0.004354270 0.014354105 -0.162500000
v 0.004354270 0.014354105 0.162500000
v 0.003644703 0.014550469 -0.162500000
v 0.003644703 0.014550469 0.162500000
v 0.002926355 0.014711779 -0.162500000
v 0.002926355 0.014711779 0.162500000
v 0.002200957 0.014837648 -0.162500000
v 0.002200957 0.014837648 0.162500000
v 0.001470257 0.014927771 -0.162500000
v 0.001470257 0.014927771 0.162500000
v 0.000736015 0.014981932 -0.162500000
v 0.000736015 0.014981932 0.162500000
v 0.000000000 0.015000000 -0.162500000
v 0.000000000 0.015000000 0.162500000
v -0.000736015 0.014981932 -0.162500000
v -0.000736015 0.014981932 0.162500000
v -0.001470257 0.014927771 -0.162500000
v -0.001470257 0.014927771 0.162500000
v -0.002200957 0.014837648 -0.162500000
v -0.002200957 0.014837648 0.162500000
v -0.002926355 0.014711779 -0.162500000
v -0.002926355 0.014711779 0.162500000
v -0.003644703 0.014550469 -0.162500000
v -0.003644703 0.014550469 0.162500000
v -0.004354270 0.014354105 -0.162500000
v -0.004354270 0.014354105 0.162500000
v -0.005053348 0.014123161 -0.162500000
v -0.005053348 0.014123161 0.162500000
v -0.005740251 0.013858193 -0.162500000
v -0.005740251 0.013858193 0.162500000
v -0.006413326 0.013559839 -0.162500000
v -0.006413326 0.013559839 0.162500000
v -0.007070951 0.013228819 -0.162500000
v -0.007070951 0.013228819 0.162500000
v -0.007711541 0.012865929 -0.162500000
v -0.007711541 0.012865929 0.162500000
v -0.008333553 0.012472044 -0.162500000
v -0.008333553 0.012472044 0.162500000
v -0.008935490 0.012048113 -0.162500000
v -0.008935490 0.012048113 0.162500000
v -0.009515899 0.011595157 -0.162500000
v -0.009515899 0.011595157 0.162500000
v -0.010073384 0.011114267 -0.162500000
v -0.010073384 0.011114267 0.162500000
v -0.010606602 0.010606602 -0.162500000
v -0.010606602 0.010606602 0.162500000
v -0.011114267 0.010073384 -0.162500000
v -0.011114267 0.010073384 0.162500000
v -0.011595157 0.009515899 -0.162500000
v -0.011595157 0.009515899 0.162500000
v -0.012048113 0.008935490 -0.162500000
v -0.012048113 0.008935490 0.162500000
v -0.012472044 0.008333553 -0.162500000
v -0.012472044 0.008333553 0.162500000
v -0.012865929 0.007711541 -0.162500000
v -0.012865929 0.007711541 0.162500000
v -0.013228819 0.007070951 -0.162500000
v -0.013228819 0.007070951 0.162500000
v -0.013559839 0.006413326 -0.162500000
v -0.013559839 0.006413326 0.162500000
v -0.013858193 0.005740251 -0.162500000
v -0.013858193 0.005740251 0.162500000
v -0.014123161 0.005053348 -0.162500000
v -0.014123161 0.005053348 0.162500000
v -0.014354105 0.004354270 -0.162500000
v -0.014354105 0.004354270 0.162500000
v -0.014550469 0.003644703 -0.162500000
v -0.014550469 0.003644703 0.162500000
v -0.014711779 0.002926355 -0.162500000
v -0.014711779 0.002926355 0.162500000
v -0.014837648 0.002200957 -0.162500000
v -0.014837648 0.002200957 0.162500000
v -0.014927771 0.001470257 -0.162500000
v -0.014927771 0.001470257 0.162500000
v -0.014981932 0.000736015 -0.162500000
v -0.014981932 0.000736015 0.162500000
v -0.015000000 0.000000000 -0.162500000
v -0.015000000 0.000000000 0.162500000
v -0.014981932 -0.000736015 -0.162500000
v -0.014981932 -0.000736015 0.162500000
v -0.014927771 -0.001470257 -0.162500000
v -0.014927771 -0.001470257 0.162500000
v -0.014837648 -0.002200957 -0.162500000
v -0.014837648 -0.002200957 0.162500000
v -0.014711779 -0.002926355 -0.162500000
v -0.014711779 -0.002926355 0.162500000
v -0.014550469 -0.003644703 -0.162500000
v -0.014550469 -0.003644703 0.162500000
v -0.014354105 -0.004354270 -0.162500000
v -0.014354105 -0.004354270 0.162500000
v -0.014123161 -0.005053348 -0.162500000
v -0.014123161 -0.005053348 0.162500000
v -0.013858193 -0.005740251 -0.162500000
v -0.013858193 -0.005740251 0.162500000
v -0.013559839 -0.006413326 -0.162500000
v -0.013559839 -0.006413326 0.162500000
v -0.013228819 -0.007070951 -0.162500000
v -0.013228819 -0.007070951 0.162500000
v -0.012865929 -0.007711541 -0.162500000
v -0.012865929 -0.007711541 0.162500000
v -0.012472044 -0.008333553 -0.162500000
v -0.012472044 -0.008333553 0.162500000
v -0.012048113 -0.008935490 -0.162500000
v -0.012048113 -0.008935490 0.162500000
v -0.011595157 -0.009515899 -0.162500000
v -0.011595157 -0.009515899 0.162500000
v -0.011114267 -0.010073384 -0.162500000
v -0.011114267 -0.010073384 0.162500000
v -0.010606602 -0.010606602 -0.162500000
v -0.010606602 -0.010606602 0.162500000
v -0.010073384 -0.011114267 -0.162500000
v -0.010073384 -0.011114267 0.162500000
v -0.009515899 -0.011595157 -0.162500000
v -0.009515899 -0.011595157 0.162500000
v -0.008935490 -0.012048113 -0.162500000
v -0.008935490 -0.012048113 0.162500000
v -0.008333553 -0.012472044 -0.162500000
v -0.008333553 -0.012472044 0.162500000
v -0.007711541 -0.012865929 -0.162500000
v -0.007711541 -0.012865929 0.162500000
v -0.007070951 -0.013228819 -0.162500000
v -0.007070951 -0.013228819 0.162500000
v -0.006413326 -0.013559839 -0.162500000
v -0.006413326 -0.013559839 0.162500000
v -0.005740251 -0.013858193 -0.162500000
v -0.005740251 -0.013858193 0.162500000
v -0.005053348 -0.014123161 -0.162500000
v -0.005053348 -0.014123161 0.162500000
v -0.004354270 -0.014354105 -0.162500000
v -0.004354270 -0.014354105 0.162500000
v -0.003644703 -0.014550469 -0.162500000
v -0.003644703 -0.014550469 0.162500000
v -0.002926355 -0.014711779 -0.162500000
v -0.002926355 -0.014711779 0.162500000
v -0.002200957 -0.014837648 -0.162500000
v -0.002200957 -0.014837648 0.162500000
v -0.001470257 -0.014927771 -0.162500000
v -0.001470257 -0.014927771 0.162500000
v -0.000736015 -0.014981932 -0.162500000
v -0.000736015 -0.014981932 0.162500000
v -0.000000000 -0.015000000 -0.162500000
v -0.000000000 -0.015000000 0.162500000
v 0.000736015 -0.014981932 -0.162500000
v 0.000736015 -0.014981932 0.162500000
v 0.001470257 -0.014927771 -0.162500000
v 0.001470257 -0.014927771 0.162500000
v 0.002200957 -0.014837648 -0.162500000
v 0.002200957 -0.014837648 0.162500000
v 0.002926355 -0.014711779 -0.162500000
v 0.002926355 -0.014711779 0.162500000
v 0.003644703 -0.014550469 -0.162500000
v 0.003644703 -0.014550469 0.162500000
v 0.004354270 -0.014354105 -0.162500000
v 0.004354270 -0.014354105 0.162500000
v 0.005053348 -0.014123161 -0.162500000
v 0.005053348 -0.014123161 0.162500000
v 0.005740251 -0.013858193 -0.162500000
v 0.005740251 -0.013858193 0.162500000
v 0.006413326 -0.013559839 -0.162500000
v 0.006413326 -0.013559839 0.162500000
v 0.007070951 -0.013228819 -0.162500000
v 0.007070951 -0.013228819 0.162500000
v 0.007711541 -0.012865929 -0.162500000
v 0.007711541 -0.012865929 0.162500000
v 0.008333553 -0.012472044 -0.162500000
v 0.008333553 -0.012472044 0.162500000
v 0.008935490 -0.012048113 -0.162500000
v 0.008935490 -0.012048113 0.162500000
v 0.009515899 -0.011595157 -0.162500000
v 0.009515899 -0.011595157 0.162500000
v 0.010073384 -0.011114267 -0.162500000
v 0.010073384 -0.011114267 0.162500000
v 0.010606602 -0.010606602 -0.162500000
v 0.010606602 -0.010606602 0.162500000
v 0.011114267 -0.010073384 -0.162500000
v 0.011114267 -0.010073384 0.162500000
v 0.011595157 -0.009515899 -0.162500000
v 0.011595157 -0.009515899 0.162500000
v 0.012048113 -0.008935490 -0.162500000
v 0.012048113 -0.008935490 0.162500000
v 0.012472044 -0.008333553 -0.162500000
v 0.012472044 -0.008333553 0.162500000
v 0.012865929 -0.007711541 -0.162500000
v 0.012865929 -0.007711541 0.162500000
v 0.013228819 -0.007070951 -0.162500000
v 0.013228819 -0.007070951 0.162500000
v 0.013559839 -0.006413326 -0.162500000
v 0.013559839 -0.006413326 0.162500000
v 0.013858193 -0.005740251 -0.162500000
v 0.013858193 -0.005740251 0.162500000
v 0.014123161 -0.005053348 -0.162500000
v 0.014123161 -0.005053348 0.162500000
v 0.014354105 -0.004354270 -0.162500000
v 0.014354105 -0.004354270 0.162500000
v 0.014550469 -0.003644703 -0.162500000
v 0.014550469 -0.003644703 0.162500000
v 0.014711779 -0.002926355 -0.162500000
v 0.014711779 -0.002926355 0.162500000
v 0.014837648 -0.002200957 -0.162500000
v 0.014837648 -0.002200957 0.162500000
v 0.014927771 -0.001470257 -0.162500000
v 0.014927771 -0.001470257 0.162500000
v 0.014981932 -0.000736015 -0.162500000
v 0.014981932 -0.000736015 0.162500000
v 0.000000000 0.000000000 -0.162500000
v 0.000000000 0.000000000 0.162500000
f 1 3 4
f 1 4 2
f 257 3 1
f 258 2 4
f 3 5 6
f 3 6 4
f 257 5 3
f 258 4 6
f 5 7 8
f 5 8 6
f 257 7 5
f 258 6 8
f 7 9 10
f 7 10 8
f 257 9 7
f 258 8 10
f 9 11 12
f 9 12 10
f 257 11 9
f 258 10 12
f 11 13 14
f 11 14 12
f 257 13 11
f 258 12 14
f 13 15 16
f 13 16 14
f 257 15 13
f 258 14 16
f 15 17 18
f 15 18 16
f 257 17 15
f 258 16 18
f 17 19 20
f 17 20 18
f 257 19 17
f 258 18 20
f 19 21 22
f 19 22 20
f 257 21 19
f 258 20 22
f 21 23 24
f 21 24 22
f 257 23 21
f 258 22 24
f 23 25 26
f 23 26 24
f 257 25 23
f 258 24 26
f 25 27 28
f 25 28 26
f 257 27 25
f 258 26 28
f 27 29 30
f 27 30 28
f 257 29 27
f 258 28 30
f 29 31 32
f 29 32 30
f 257 31 29
f 258 30 32
f 31 33 34
f 31 34 32
f 257 33 31
f 258 32 34
f 33 35 36
f 33 36 34
f 257 35 33
f 258 34 36
f 35 37 38
f 35 38 36
f 257 37 35
f 258 36 38
f 37 39 40
f 37 40 38
f 257 39 37
f 258 38 40
f 39 41 42
f 39 42 40
f 257 41 39
f 258 40 42
f 41 43 44
f 41 44 42
f 257 43 41
f 258 42 44
f 43 45 46
f 43 46 44
f 257 45 43
f 258 44 46
f 45 47 48
f 45 48 46
f 257 47 45
f 258 46 48
f 47 49 50
f 47 50 48
f 257 49 47
f 258 48 50
f 49 51 52
f 49 52 50
f 257 51 49
f 258 50 52
f 51 53 54
f 51 54 52
f 257 53 51
f 258 52 54
f 53 55 56
f 53 56 54
f 257 55 53
f 258 54 56
f 55 57 58
f 55 58 56
f 257 57 55
f 258 56 58
f 57 59 60
f 57 60 58
f 257 59 57
f 258 58 60
f 59 61 62
f 59 62 60
f 257 61 59
f 258 60 62
f 61 63 64
f 61 64 62
f 257 63 61
f 258 62 64
f 63 65 66
f 63 66 64
f 257 65 63
f 258 64 66
f 65 67 68
f 65 68 66
f 257 67 65
f 258 66 68
f 67 69 70
f 67 70 68
f 257 69 67
f 258 68 70
f 69 71 72
f 69 72 70
f 257 71 69
f 258 70 72
f 71 73 74
f 71 74 72
f 257 73 71
f 258 72 74
f 73 75 76
f 73 76 74
f 257 75 73
f 258 74 76
f 75 77 78
f 75 78 76
f 257 77 75
f 258 76 78
f 77 79 80
f 77 80 78
f 257 79 77
f 258 78 80
f 79 81 82
f 79 82 80
f 257 81 79
f 258 80 82
f 81 83 84
f 81 84 82
f 257 83 81
f 258 82 84
f 83 85 86
f 83 86 84
f 257 85 83
f 258 84 86
f 85 87 88
f 85 88 86
f 257 87 85
f 258 86 88
f 87 89 90
f 87 90 88
f 257 89 87
f 258 88 90
f 89 91 92
f 89 92 90
f 257 91 89
f 258 90 92
f 91 93 94
f 91 94 92
f 257 93 91
f 258 92 94
f 93 95 96
f 93 96 94
f 257 95 93
f 258 94 96
f 95 97 98
f 95 98 96
f 257 97 95
f 258 96 98
f 97 99 100
f 97 100 98
f 257 99 97
f 258 98 100
f 99 101 102
f 99 102 100
f 257 101 99
f 258 100 102
f 101 103 104
f 101 104 102
f 257 103 101
f 258 102 104
f 103 105 106
f 103 106 104
f 257 105 103
f 258 104 106
f 105 107 108
f 105 108 106
f 257 107 105
f 258 106 108
f 107 109 110
f 107 110 108
f 257 109 107
f 258 108 110
f 109 111 112
f 109 112 110
f 257 111 109
f 258 110 112
f 111 113 114
f 111 114 112
f 257 113 111
f 258 112 114
f 113 115 116
f 113 116 114
f 257 115 113
f 258 114 116
f 115 117 118
f 115 118 116
f 257 117 115
f 258 116 118
f 117 119 120
f 117 120 118
f 257 119 117
f 258 118 120
f 119 121 122
f 119 122 120
f 257 121 119
f 258 120 122
f 121 123 124
f 121 124 122
f 257 123 121
f 258 122 124
f 123 125 126
f 123 126 124
f 257 125 123
f 258 124 126
f 125 127 128
f 125 128 126
f 257 127 125
f 258 126 128
f 127 129 130
f 127 130 128
f 257 129 127
f 258 128 130
f 129 131 132
f 129 132 130
f 257 131 129
f 258 130 132
f 131 133 134
f 131 134 132
f 257 133 131
f 258 132 134
f 133 135 136
f 133 136 134
f 257 135 133
f 258 134 136
f 135 137 138
f 135 138 136
f 257 137 135
f 258 136 138
f 137 139 140
f 137 140 138
f 257 139 137
f 258 138 140
f 139 141 142
f 139 142 140
f 257 141 139
f 258 140 142
f 141 143 144
f 141 144 142
f 257 143 141
f 258 142 144
f 143 145 146
f 143 146 144
f 257 145 143
f 258 144 146
f 145 147 148
f 145 148 146
f 257 147 145
f 258 146 148
f 147 149 150
f 147 150 148
f 257 149 147
f 258 148 150
f 149 151 152
f 149 152 150
f 257 151 149
f 258 150 152
f 151 153 154
f 151 154 152
f 257 153 151
f 258 152 154
f 153 155 156
f 153 156 154
f 257 155 153
f 258 154 156
f 155 157 158
f 155 158 156
f 257 157 155
f 258 156 158
f 157 159 160
f 157 160 158
f 257 159 157
f 258 158 160
f 159 161 162
f 159 162 160
f 257 161 159
f 258 160 162
f 161 163 164
f 161 164 162
f 257 163 161
f 258 162 164
f 163 165 166
f 163 166 164
f 257 165 163
f 258 164 166
f 165 167 168
f 165 168 166
f 257 167 165
f 258 166 168
f 167 169 170
f 167 170 168
f 257 169 167
f 258 168 170
f 169 171 172
f 169 172 170
f 257 171 169
f 258 170 172
f 171 173 174
f 171 174 172
f 257 173 171
f 258 172 174
f 173 175 176
f 173 176 174
f 257 175 173
f 258 174 176
f 175 177 178
f 175 178 176
f 257 177 175
f 258 176 178
f 177 179 180
f 177 180 178
f 257 179 177
f 258 178 180
f 179 181 182
f 179 182 180
f 257 181 179
f 258 180 182
f 181 183 184
f 181 184 182
f 257 183 181
f 258 182 184
f 183 185 186
f 183 186 184
f 257 185 183
f 258 184 186
f 185 187 188
f 185 188 186
f 257 187 185
f 258 186 188
f 187 189 190
f 187 190 188
f 257 189 187
f 258 188 190
f 189 191 192
f 189 192 190
f 257 191 189
f 258 190 192
f 191 193 194
f 191 194 192
f 257 193 191
f 258 192 194
f 193 195 196
f 193 196 194
f 257 195 193
f 258 194 196
f 195 197 198
f 195 198 196
f 257 197 195
f 258 196 198
f 197 199 200
f 197 200 198
f 257 199 197
f 258 198 200
f 199 201 202
f 199 202 200
f 257 201 199
f 258 200 202
f 201 203 204
f 201 204 202
f 257 203 201
f 258 202 204
f 203 205 206
f 203 206 204
f 257 205 203
f 258 204 206
f 205 207 208
f 205 208 206
f 257 207 205
f 258 206 208
f 207 209 210
f 207 210 208
f 257 209 207
f 258 208 210
f 209 211 212
f 209 212 210
f 257 211 209
f 258 210 212
f 211 213 214
f 211 214 212
f 257 213 211
f 258 212 214
f 213 215 216
f 213 216 214
f 257 215 213
f 258 214 216
f 215 217 218
f 215 218 216
f 257 217 215
f 258 216 218
f 217 219 220
f 217 220 218
f 257 219 217
f 258 218 220
f 219 221 222
f 219 222 220
f 257 221 219
f 258 220 222
f 221 223 224
f 221 224 222
f 257 223 221
f 258 222 224
f 223 225 226
f 223 226 224
f 257 225 223
f 258 224 226
f 225 227 228
f 225 228 226
f 257 227 225
f 258 226 228
f 227 229 230
f 227 230 228
f 257 229 227
f 258 228 230
f 229 231 232
f 229 232 230
f 257 231 229
f 258 230 232
f 231 233 234
f 231 234 232
f 257 233 231
f 258 232 234
f 233 235 236
f 233 236 234
f 257 235 233
f 258 234 236
f 235 237 238
f 235 238 236
f 257 237 235
f 258 236 238
f 237 239 240
f 237 240 238
f 257 239 237
f 258 238 240
f 239 241 242
f 239 242 240
f 257 241 239
f 258 240 242
f 241 243 244
f 241 244 242
f 257 243 241
f 258 242 244
f 243 245 246
f 243 246 244
f 257 245 243
f 258 244 246
f 245 247 248
f 245 248 246
f 257 247 245
f 258 246 248
f 247 249 250
f 247 250 248
f 257 249 247
f 258 248 250
f 249 251 252
f 249 252 250
f 257 251 249
f 258 250 252
f 251 253 254
f 251 254 252
f 257 253 251
f 258 252 254
f 253 255 256
f 253 256 254
f 257 255 253
f 258 254 256
f 255 1 2
f 255 2 256
f 257 1 255
f 258 256 2
